<?xml version="1.0" encoding="UTF-8"?>
<svg width="400" height="400" enable-background="new 0 0 1160 1160" version="1.1" viewBox="0 0 400 400" xml:space="preserve" xmlns="http://www.w3.org/2000/svg">
<rect width="400" height="400" fill="#fff"/><g stroke-width="2.9"><g transform="matrix(.13793 0 0 .13793 137.93 27.586)"/><g transform="matrix(.13793 0 0 .13793 165.52 27.586)"/><g transform="matrix(.13793 0 0 .13793 206.9 27.586)"/><g transform="matrix(.13793 0 0 .13793 234.48 27.586)"/><g transform="matrix(.13793 0 0 .13793 179.31 41.379)"/><g transform="matrix(.13793 0 0 .13793 193.1 41.379)"/><g transform="matrix(.13793 0 0 .13793 206.9 41.379)"/><g transform="matrix(.13793 0 0 .13793 248.28 41.379)"/><g transform="matrix(.13793 0 0 .13793 165.52 55.172)"/><g transform="matrix(.13793 0 0 .13793 179.31 55.172)"/><g transform="matrix(.13793 0 0 .13793 248.28 55.172)"/><g transform="matrix(.13793 0 0 .13793 137.93 68.966)"/><g transform="matrix(.13793 0 0 .13793 151.72 68.966)"/><g transform="matrix(.13793 0 0 .13793 220.69 68.966)"/><g transform="matrix(.13793 0 0 .13793 234.48 68.966)"/><g transform="matrix(.13793 0 0 .13793 248.28 68.966)"/><g transform="matrix(.13793 0 0 .13793 151.72 82.759)"/><g transform="matrix(.13793 0 0 .13793 165.52 82.759)"/><g transform="matrix(.13793 0 0 .13793 165.52 96.552)"/><g transform="matrix(.13793 0 0 .13793 179.31 96.552)"/><g transform="matrix(.13793 0 0 .13793 206.9 96.552)"/><g transform="matrix(.13793 0 0 .13793 248.28 96.552)"/><g transform="matrix(.13793 0 0 .13793 137.93 110.34)"/><g transform="matrix(.13793 0 0 .13793 165.52 110.34)"/><g transform="matrix(.13793 0 0 .13793 193.1 110.34)"/><g transform="matrix(.13793 0 0 .13793 220.69 110.34)"/><g transform="matrix(.13793 0 0 .13793 248.28 110.34)"/><g transform="matrix(.13793 0 0 .13793 137.93 124.14)"/><g transform="matrix(.13793 0 0 .13793 151.72 124.14)"/><g transform="matrix(.13793 0 0 .13793 165.52 124.14)"/><g transform="matrix(.13793 0 0 .13793 27.586 137.93)"/><g transform="matrix(.13793 0 0 .13793 55.172 137.93)"/><g transform="matrix(.13793 0 0 .13793 68.966 137.93)"/><g transform="matrix(.13793 0 0 .13793 96.552 137.93)"/><g transform="matrix(.13793 0 0 .13793 110.34 137.93)"/><g transform="matrix(.13793 0 0 .13793 124.14 137.93)"/><g transform="matrix(.13793 0 0 .13793 151.72 137.93)"/><g transform="matrix(.13793 0 0 .13793 193.1 137.93)"/><g transform="matrix(.13793 0 0 .13793 206.9 137.93)"/><g transform="matrix(.13793 0 0 .13793 275.86 137.93)"/><g transform="matrix(.13793 0 0 .13793 317.24 137.93)"/><g transform="matrix(.13793 0 0 .13793 344.83 137.93)"/><g transform="matrix(.13793 0 0 .13793 358.62 137.93)"/><g transform="matrix(.13793 0 0 .13793 41.379 151.72)"/><g transform="matrix(.13793 0 0 .13793 55.172 151.72)"/><g transform="matrix(.13793 0 0 .13793 124.14 151.72)"/><g transform="matrix(.13793 0 0 .13793 165.52 151.72)"/><g transform="matrix(.13793 0 0 .13793 179.31 151.72)"/><g transform="matrix(.13793 0 0 .13793 193.1 151.72)"/><g transform="matrix(.13793 0 0 .13793 206.9 151.72)"/><g transform="matrix(.13793 0 0 .13793 220.69 151.72)"/><g transform="matrix(.13793 0 0 .13793 248.28 151.72)"/><g transform="matrix(.13793 0 0 .13793 262.07 151.72)"/><g transform="matrix(.13793 0 0 .13793 344.83 151.72)"/><g transform="matrix(.13793 0 0 .13793 68.966 165.52)"/><g transform="matrix(.13793 0 0 .13793 82.759 165.52)"/><g transform="matrix(.13793 0 0 .13793 110.34 165.52)"/><g transform="matrix(.13793 0 0 .13793 124.14 165.52)"/><g transform="matrix(.13793 0 0 .13793 137.93 165.52)"/><g transform="matrix(.13793 0 0 .13793 151.72 165.52)"/><g transform="matrix(.13793 0 0 .13793 206.9 165.52)"/><g transform="matrix(.13793 0 0 .13793 248.28 165.52)"/><g transform="matrix(.13793 0 0 .13793 262.07 165.52)"/><g transform="matrix(.13793 0 0 .13793 275.86 165.52)"/><g transform="matrix(.13793 0 0 .13793 289.66 165.52)"/><g transform="matrix(.13793 0 0 .13793 303.45 165.52)"/><g transform="matrix(.13793 0 0 .13793 55.172 179.31)"/><g transform="matrix(.13793 0 0 .13793 68.966 179.31)"/><g transform="matrix(.13793 0 0 .13793 82.759 179.31)"/><g transform="matrix(.13793 0 0 .13793 124.14 179.31)"/><g transform="matrix(.13793 0 0 .13793 137.93 179.31)"/><g transform="matrix(.13793 0 0 .13793 179.31 179.31)"/><g transform="matrix(.13793 0 0 .13793 234.48 179.31)"/><g transform="matrix(.13793 0 0 .13793 262.07 179.31)"/><g transform="matrix(.13793 0 0 .13793 289.66 179.31)"/><g transform="matrix(.13793 0 0 .13793 317.24 179.31)"/><g transform="matrix(.13793 0 0 .13793 331.03 179.31)"/><g transform="matrix(.13793 0 0 .13793 27.586 193.1)"/><g transform="matrix(.13793 0 0 .13793 68.966 193.1)"/><g transform="matrix(.13793 0 0 .13793 82.759 193.1)"/><g transform="matrix(.13793 0 0 .13793 96.552 193.1)"/><g transform="matrix(.13793 0 0 .13793 110.34 193.1)"/><g transform="matrix(.13793 0 0 .13793 124.14 193.1)"/><g transform="matrix(.13793 0 0 .13793 137.93 193.1)"/><g transform="matrix(.13793 0 0 .13793 179.31 193.1)"/><g transform="matrix(.13793 0 0 .13793 193.1 193.1)"/><g transform="matrix(.13793 0 0 .13793 220.69 193.1)"/><g transform="matrix(.13793 0 0 .13793 262.07 193.1)"/><g transform="matrix(.13793 0 0 .13793 275.86 193.1)"/><g transform="matrix(.13793 0 0 .13793 303.45 193.1)"/><g transform="matrix(.13793 0 0 .13793 331.03 193.1)"/><g transform="matrix(.13793 0 0 .13793 344.83 193.1)"/><g transform="matrix(.13793 0 0 .13793 358.62 193.1)"/><g transform="matrix(.13793 0 0 .13793 41.379 206.9)"/><g transform="matrix(.13793 0 0 .13793 55.172 206.9)"/><g transform="matrix(.13793 0 0 .13793 82.759 206.9)"/><g transform="matrix(.13793 0 0 .13793 137.93 206.9)"/><g transform="matrix(.13793 0 0 .13793 151.72 206.9)"/><g transform="matrix(.13793 0 0 .13793 165.52 206.9)"/><g transform="matrix(.13793 0 0 .13793 179.31 206.9)"/><g transform="matrix(.13793 0 0 .13793 193.1 206.9)"/><g transform="matrix(.13793 0 0 .13793 220.69 206.9)"/><g transform="matrix(.13793 0 0 .13793 234.48 206.9)"/><g transform="matrix(.13793 0 0 .13793 262.07 206.9)"/><g transform="matrix(.13793 0 0 .13793 275.86 206.9)"/><g transform="matrix(.13793 0 0 .13793 289.66 206.9)"/><g transform="matrix(.13793 0 0 .13793 303.45 206.9)"/><g transform="matrix(.13793 0 0 .13793 358.62 206.9)"/><g transform="matrix(.13793 0 0 .13793 41.379 220.69)"/><g transform="matrix(.13793 0 0 .13793 55.172 220.69)"/><g transform="matrix(.13793 0 0 .13793 68.966 220.69)"/><g transform="matrix(.13793 0 0 .13793 82.759 220.69)"/><g transform="matrix(.13793 0 0 .13793 110.34 220.69)"/><g transform="matrix(.13793 0 0 .13793 151.72 220.69)"/><g transform="matrix(.13793 0 0 .13793 179.31 220.69)"/><g transform="matrix(.13793 0 0 .13793 206.9 220.69)"/><g transform="matrix(.13793 0 0 .13793 275.86 220.69)"/><g transform="matrix(.13793 0 0 .13793 303.45 220.69)"/><g transform="matrix(.13793 0 0 .13793 331.03 220.69)"/><g transform="matrix(.13793 0 0 .13793 344.83 220.69)"/><g transform="matrix(.13793 0 0 .13793 27.586 234.48)"/><g transform="matrix(.13793 0 0 .13793 68.966 234.48)"/><g transform="matrix(.13793 0 0 .13793 82.759 234.48)"/><g transform="matrix(.13793 0 0 .13793 124.14 234.48)"/><g transform="matrix(.13793 0 0 .13793 165.52 234.48)"/><g transform="matrix(.13793 0 0 .13793 179.31 234.48)"/><g transform="matrix(.13793 0 0 .13793 220.69 234.48)"/><g transform="matrix(.13793 0 0 .13793 248.28 234.48)"/><g transform="matrix(.13793 0 0 .13793 262.07 234.48)"/><g transform="matrix(.13793 0 0 .13793 275.86 234.48)"/><g transform="matrix(.13793 0 0 .13793 289.66 234.48)"/><g transform="matrix(.13793 0 0 .13793 303.45 234.48)"/><g transform="matrix(.13793 0 0 .13793 358.62 234.48)"/><g transform="matrix(.13793 0 0 .13793 55.172 248.28)"/><g transform="matrix(.13793 0 0 .13793 68.966 248.28)"/><g transform="matrix(.13793 0 0 .13793 82.759 248.28)"/><g transform="matrix(.13793 0 0 .13793 110.34 248.28)"/><g transform="matrix(.13793 0 0 .13793 124.14 248.28)"/><g transform="matrix(.13793 0 0 .13793 151.72 248.28)"/><g transform="matrix(.13793 0 0 .13793 193.1 248.28)"/><g transform="matrix(.13793 0 0 .13793 220.69 248.28)"/><g transform="matrix(.13793 0 0 .13793 248.28 248.28)"/><g transform="matrix(.13793 0 0 .13793 262.07 248.28)"/><g transform="matrix(.13793 0 0 .13793 275.86 248.28)"/><g transform="matrix(.13793 0 0 .13793 289.66 248.28)"/><g transform="matrix(.13793 0 0 .13793 303.45 248.28)"/><g transform="matrix(.13793 0 0 .13793 317.24 248.28)"/><g transform="matrix(.13793 0 0 .13793 331.03 248.28)"/><g transform="matrix(.13793 0 0 .13793 344.83 248.28)"/><g transform="matrix(.13793 0 0 .13793 358.62 248.28)"/><g transform="matrix(.13793 0 0 .13793 137.93 262.07)"/><g transform="matrix(.13793 0 0 .13793 165.52 262.07)"/><g transform="matrix(.13793 0 0 .13793 220.69 262.07)"/><g transform="matrix(.13793 0 0 .13793 248.28 262.07)"/><g transform="matrix(.13793 0 0 .13793 303.45 262.07)"/><g transform="matrix(.13793 0 0 .13793 331.03 262.07)"/><g transform="matrix(.13793 0 0 .13793 358.62 262.07)"/><g transform="matrix(.13793 0 0 .13793 137.93 275.86)"/><g transform="matrix(.13793 0 0 .13793 151.72 275.86)"/><g transform="matrix(.13793 0 0 .13793 206.9 275.86)"/><g transform="matrix(.13793 0 0 .13793 220.69 275.86)"/><g transform="matrix(.13793 0 0 .13793 248.28 275.86)"/><g transform="matrix(.13793 0 0 .13793 275.86 275.86)"/><g transform="matrix(.13793 0 0 .13793 303.45 275.86)"/><g transform="matrix(.13793 0 0 .13793 331.03 275.86)"/><g transform="matrix(.13793 0 0 .13793 344.83 275.86)"/><g transform="matrix(.13793 0 0 .13793 358.62 275.86)"/><g transform="matrix(.13793 0 0 .13793 137.93 289.66)"/><g transform="matrix(.13793 0 0 .13793 165.52 289.66)"/><g transform="matrix(.13793 0 0 .13793 179.31 289.66)"/><g transform="matrix(.13793 0 0 .13793 206.9 289.66)"/><g transform="matrix(.13793 0 0 .13793 220.69 289.66)"/><g transform="matrix(.13793 0 0 .13793 234.48 289.66)"/><g transform="matrix(.13793 0 0 .13793 248.28 289.66)"/><g transform="matrix(.13793 0 0 .13793 303.45 289.66)"/><g transform="matrix(.13793 0 0 .13793 206.9 303.45)"/><g transform="matrix(.13793 0 0 .13793 220.69 303.45)"/><g transform="matrix(.13793 0 0 .13793 248.28 303.45)"/><g transform="matrix(.13793 0 0 .13793 262.07 303.45)"/><g transform="matrix(.13793 0 0 .13793 275.86 303.45)"/><g transform="matrix(.13793 0 0 .13793 289.66 303.45)"/><g transform="matrix(.13793 0 0 .13793 303.45 303.45)"/><g transform="matrix(.13793 0 0 .13793 317.24 303.45)"/><g transform="matrix(.13793 0 0 .13793 137.93 317.24)"/><g transform="matrix(.13793 0 0 .13793 151.72 317.24)"/><g transform="matrix(.13793 0 0 .13793 248.28 317.24)"/><g transform="matrix(.13793 0 0 .13793 275.86 317.24)"/><g transform="matrix(.13793 0 0 .13793 303.45 317.24)"/><g transform="matrix(.13793 0 0 .13793 317.24 317.24)"/><g transform="matrix(.13793 0 0 .13793 331.03 317.24)"/><g transform="matrix(.13793 0 0 .13793 344.83 317.24)"/><g transform="matrix(.13793 0 0 .13793 358.62 317.24)"/><g transform="matrix(.13793 0 0 .13793 137.93 331.03)"/><g transform="matrix(.13793 0 0 .13793 165.52 331.03)"/><g transform="matrix(.13793 0 0 .13793 220.69 331.03)"/><g transform="matrix(.13793 0 0 .13793 262.07 331.03)"/><g transform="matrix(.13793 0 0 .13793 275.86 331.03)"/><g transform="matrix(.13793 0 0 .13793 303.45 331.03)"/><g transform="matrix(.13793 0 0 .13793 331.03 331.03)"/><g transform="matrix(.13793 0 0 .13793 344.83 331.03)"/><g transform="matrix(.13793 0 0 .13793 179.31 344.83)"/><g transform="matrix(.13793 0 0 .13793 193.1 344.83)"/><g transform="matrix(.13793 0 0 .13793 206.9 344.83)"/><g transform="matrix(.13793 0 0 .13793 220.69 344.83)"/><g transform="matrix(.13793 0 0 .13793 234.48 344.83)"/><g transform="matrix(.13793 0 0 .13793 262.07 344.83)"/><g transform="matrix(.13793 0 0 .13793 275.86 344.83)"/><g transform="matrix(.13793 0 0 .13793 303.45 344.83)"/><g transform="matrix(.13793 0 0 .13793 331.03 344.83)"/><g transform="matrix(.13793 0 0 .13793 137.93 358.62)"/><g transform="matrix(.13793 0 0 .13793 151.72 358.62)"/><g transform="matrix(.13793 0 0 .13793 165.52 358.62)"/><g transform="matrix(.13793 0 0 .13793 179.31 358.62)"/><g transform="matrix(.13793 0 0 .13793 289.66 358.62)"/><g transform="matrix(.13793 0 0 .13793 303.45 358.62)"/><g transform="matrix(.13793 0 0 .13793 317.24 358.62)"/><g transform="matrix(.13793 0 0 .13793 331.03 358.62)"/><g transform="matrix(.13793 0 0 .13793 344.83 358.62)"/><g transform="matrix(.13793 0 0 .13793 358.62 358.62)"><g stroke-width="2.9">
<path d="m0 0h100v100h-100zm-100 0h100v100h-100zm-100 0h100v100h-100zm-100 0h100v100h-100zm-100 0h100v100h-100zm-100 0h100v100h-100zm-800 0h100v100h-100zm-100 0h100v100h-100zm-100 0h100v100h-100zm-100 0h100v100h-100zm1400-100h100v100h-100zm-200 0h100v100h-100zm-200 0h100v100h-100zm-100 0h100v100h-100zm-200 0h100v100h-100zm-100 0h100v100h-100zm-100 0h100v100h-100zm-100 0h100v100h-100zm-100 0h100v100h-100zm1200-100h100v100h-100zm-100 0h100v100h-100zm-200 0h100v100h-100zm-200 0h100v100h-100zm-100 0h100v100h-100zm-300 0h100v100h-100zm-400 0h100v100h-100zm-200 0h100v100h-100zm1600-100h100v100h-100zm-100 0h100v100h-100zm-100 0h100v100h-100zm-100 0h100v100h-100zm-100 0h100v100h-100zm-200 0h100v100h-100zm-200 0h100v100h-100zm-700 0h100v100h-100zm-100 0h100v100h-100zm1300-100h100v100h-100zm-100 0h100v100h-100zm-100 0h100v100h-100zm-100 0h100v100h-100zm-100 0h100v100h-100zm-100 0h100v100h-100zm-200 0h100v100h-100zm-100 0h100v100h-100zm700-100h100v100h-100zm-400 0h100v100h-100zm-100 0h100v100h-100zm-100 0h100v100h-100zm-100 0h100v100h-100zm-200 0h100v100h-100zm-100 0h100v100h-100zm-200 0h100v100h-100zm1600-100h100v100h-100zm-100 0h100v100h-100zm-100 0h100v100h-100zm-200 0h100v100h-100zm-200 0h100v100h-100zm-200 0h100v100h-100zm-200 0h100v100h-100zm-100 0h100v100h-100zm-400 0h100v100h-100zm-100 0h100v100h-100zm1600-100h100v100h-100zm-200 0h100v100h-100zm-200 0h100v100h-100zm-400 0h100v100h-100zm-200 0h100v100h-100zm-400 0h100v100h-100zm-200 0h100v100h-100zm1600-100h100v100h-100zm-100 0h100v100h-100zm-100 0h100v100h-100zm-100 0h100v100h-100zm-100 0h100v100h-100zm-100 0h100v100h-100zm-100 0h100v100h-100zm-100 0h100v100h-100zm-100 0h100v100h-100zm-200 0h100v100h-100zm-200 0h100v100h-100zm-300 0h100v100h-100zm-200 0h100v100h-100zm-100 0h100v100h-100zm-200 0h100v100h-100zm-100 0h100v100h-100zm-100 0h100v100h-100zm2200-100h100v100h-100zm-400 0h100v100h-100zm-100 0h100v100h-100zm-100 0h100v100h-100zm-100 0h100v100h-100zm-100 0h100v100h-100zm-200 0h100v100h-100zm-300 0h100v100h-100zm-100 0h100v100h-100zm-300 0h100v100h-100zm-300 0h100v100h-100zm-100 0h100v100h-100zm-300 0h100v100h-100zm2300-100h100v100h-100zm-100 0h100v100h-100zm-200 0h100v100h-100zm-200 0h100v100h-100zm-500 0h100v100h-100zm-200 0h100v100h-100zm-200 0h100v100h-100zm-300 0h100v100h-100zm-200 0h100v100h-100zm-100 0h100v100h-100zm-100 0h100v100h-100zm-100 0h100v100h-100zm2300-100h100v100h-100zm-400 0h100v100h-100zm-100 0h100v100h-100zm-100 0h100v100h-100zm-100 0h100v100h-100zm-200 0h100v100h-100zm-100 0h100v100h-100zm-200 0h100v100h-100zm-100 0h100v100h-100zm-100 0h100v100h-100zm-100 0h100v100h-100zm-100 0h100v100h-100zm-400 0h100v100h-100zm-200 0h100v100h-100zm-100 0h100v100h-100zm2300-100h100v100h-100zm-100 0h100v100h-100zm-100 0h100v100h-100zm-200 0h100v100h-100zm-200 0h100v100h-100zm-100 0h100v100h-100zm-300 0h100v100h-100zm-200 0h100v100h-100zm-100 0h100v100h-100zm-300 0h100v100h-100zm-100 0h100v100h-100zm-100 0h100v100h-100zm-100 0h100v100h-100zm-100 0h100v100h-100zm-100 0h100v100h-100zm-300 0h100v100h-100zm2200-100h100v100h-100zm-100 0h100v100h-100zm-200 0h100v100h-100zm-200 0h100v100h-100zm-200 0h100v100h-100zm-400 0h100v100h-100zm-300 0h100v100h-100zm-100 0h100v100h-100zm-300 0h100v100h-100zm-100 0h100v100h-100zm-100 0h100v100h-100zm1800-100h100v100h-100zm-100 0h100v100h-100zm-100 0h100v100h-100zm-100 0h100v100h-100zm-100 0h100v100h-100zm-300 0h100v100h-100zm-400 0h100v100h-100zm-100 0h100v100h-100zm-100 0h100v100h-100zm-100 0h100v100h-100zm-200 0h100v100h-100zm-100 0h100v100h-100zm2e3 -100h100v100h-100zm-600 0h100v100h-100zm-100 0h100v100h-100zm-200 0h100v100h-100zm-100 0h100v100h-100zm-100 0h100v100h-100zm-100 0h100v100h-100zm-100 0h100v100h-100zm-300 0h100v100h-100zm-500 0h100v100h-100zm-100 0h100v100h-100zm2300-100h100v100h-100zm-100 0h100v100h-100zm-200 0h100v100h-100zm-300 0h100v100h-100zm-500 0h100v100h-100zm-100 0h100v100h-100zm-300 0h100v100h-100zm-200 0h100v100h-100zm-100 0h100v100h-100zm-100 0h100v100h-100zm-200 0h100v100h-100zm-100 0h100v100h-100zm-200 0h100v100h-100zm1e3 -100h100v100h-100zm-100 0h100v100h-100zm-100 0h100v100h-100zm800-100h100v100h-100zm-200 0h100v100h-100zm-200 0h100v100h-100zm-200 0h100v100h-100zm-200 0h100v100h-100zm800-100h100v100h-100zm-300 0h100v100h-100zm-200 0h100v100h-100zm-100 0h100v100h-100zm500-100h100v100h-100zm-100 0h100v100h-100zm-400 0h100v100h-100zm-100 0h100v100h-100zm700-100h100v100h-100zm-100 0h100v100h-100zm-100 0h100v100h-100zm-500 0h100v100h-100zm-100 0h100v100h-100zm800-100h100v100h-100zm-500 0h100v100h-100zm-100 0h100v100h-100zm600-100h100v100h-100zm-300 0h100v100h-100zm-100 0h100v100h-100zm-100 0h100v100h-100zm-200 0h100v100h-100zm-100 0h100v100h-100zm700-100h100v100h-100zm-200 0h100v100h-100zm-300 0h100v100h-100zm-200 0h100v100h-100z"/>
</g></g><g transform="matrix(.96552 0 0 .96552 27.586 27.586)"><g stroke-width="2.9">
<g stroke-width="2.9">
	<rect x="15" y="15" width="70" height="70" fill="none"/>
	<path d="m85 0h-85v100h100v-100h-15zm0 85h-70v-70h70v70z"/>
</g>
</g></g><g transform="matrix(.96552 0 0 .96552 275.86 27.586)">
<g stroke-width="2.9">
	<rect x="15" y="15" width="70" height="70" fill="none"/>
	<path d="m85 0h-85v100h100v-100h-15zm0 85h-70v-70h70v70z"/>
</g>
</g><g transform="matrix(.96552 0 0 .96552 27.586 275.86)"><g stroke-width="2.9">
<g stroke-width="2.9">
	<rect x="15" y="15" width="70" height="70" fill="none"/>
	<path d="m85 0h-85v100h100v-100h-15zm0 85h-70v-70h70v70z"/>
</g>
</g></g><g transform="matrix(.41379 0 0 .41379 55.172 55.172)"><g stroke-width="2.9">
<rect width="100" height="100" stroke-width="2.9"/>
</g></g><g transform="matrix(.41379 0 0 .41379 303.45 55.172)"><g stroke-width="2.9">
<rect width="100" height="100" stroke-width="2.9"/>
</g></g><g transform="matrix(.41379 0 0 .41379 55.172 303.45)"><g stroke-width="2.9">
<rect width="100" height="100" stroke-width="2.9"/>
</g></g></g></svg>
